<svg width="96" height="86" viewBox="0 0 96 86" fill="none" xmlns="http://www.w3.org/2000/svg">
<path d="M85.0779 77.4805H12.9917C12.1869 77.4805 11.4971 76.7897 11.4971 75.9838V60.0963C11.4971 59.2904 12.1869 58.5996 12.9917 58.5996H85.0779C85.8827 58.5996 86.5725 59.2904 86.5725 60.0963V75.9838C86.5725 76.7897 85.8827 77.4805 85.0779 77.4805Z" fill="white" stroke="#000145" stroke-miterlimit="10" stroke-linecap="round" stroke-linejoin="round"/>
<path d="M81.7438 25.4431C81.7438 25.4431 81.6288 25.4431 81.7438 25.4431C60.0144 25.4431 38.1701 25.4431 16.4408 25.4431C14.8312 37.071 13.1067 48.5837 11.4971 60.2115H16.4408H81.6288H86.5725C84.9629 48.5837 83.3534 36.9558 81.7438 25.4431Z" fill="white" stroke="#000145" stroke-miterlimit="10" stroke-linecap="round" stroke-linejoin="round"/>
<path d="M75.8802 32.1204C71.9712 32.1204 68.1772 32.1204 64.3832 32.1204C54.1508 32.1204 44.0335 32.1204 33.8011 32.1204C30.0071 32.1204 26.0981 32.1204 22.3041 32.1204C21.3844 38.2221 20.4646 44.3238 19.5448 50.5407C19.3149 52.1525 20.5796 53.6491 22.3041 53.6491H30.6969H33.9161H64.3832H67.6023H75.8802C77.6047 53.6491 78.8694 52.1525 78.6395 50.5407C77.7197 44.3238 76.7999 38.2221 75.8802 32.1204Z" fill="white" stroke="#000145" stroke-miterlimit="10" stroke-linecap="round" stroke-linejoin="round"/>
<path d="M37.0203 44.7844H62.8885" stroke="#000145" stroke-miterlimit="10" stroke-linecap="round" stroke-linejoin="round"/>
<path d="M63.9233 29.9331H35.8706V37.1861H63.9233V29.9331Z" fill="white"/>
<path d="M45.988 45.5904V40.6399V35.8046V12.0884H52.1964V35.8046H58.0599V40.6399H52.1964V45.5904H58.0599V50.1955H45.988V45.5904Z" fill="white" stroke="#000145" stroke-miterlimit="10"/>
<path d="M28.3977 32.1204H41.0444" stroke="#000145" stroke-miterlimit="10" stroke-linecap="round" stroke-linejoin="round"/>
<path d="M58.8647 32.1204H71.5114" stroke="#000145" stroke-miterlimit="10" stroke-linecap="round" stroke-linejoin="round"/>
<path d="M63.9233 45.3601H35.8706V51.1165H63.9233V45.3601Z" fill="white"/>
<path d="M66.6825 21.6438H31.3867V28.8968H66.6825V21.6438Z" fill="white"/>
<path d="M67.4875 14.8513H32.1917V22.1043H67.4875V14.8513Z" fill="white"/>
<path d="M49.0923 29.818C56.0768 29.818 61.739 24.1481 61.739 17.154C61.739 10.1599 56.0768 4.48999 49.0923 4.48999C42.1077 4.48999 36.4456 10.1599 36.4456 17.154C36.4456 24.1481 42.1077 29.818 49.0923 29.818Z" fill="white" stroke="#000145" stroke-miterlimit="10"/>
<path d="M49.0923 24.0616C52.9021 24.0616 55.9905 20.9689 55.9905 17.154C55.9905 13.339 52.9021 10.2463 49.0923 10.2463C45.2825 10.2463 42.1941 13.339 42.1941 17.154C42.1941 20.9689 45.2825 24.0616 49.0923 24.0616Z" fill="white" stroke="#000145" stroke-miterlimit="10"/>
<path d="M62.8887 25.4431H75.4204" stroke="#000145" stroke-miterlimit="10" stroke-linecap="round" stroke-linejoin="round"/>
<path d="M22.1892 25.4431H34.7209" stroke="#000145" stroke-miterlimit="10" stroke-linecap="round" stroke-linejoin="round"/>
<path d="M20.3496 70.573H35.8706" stroke="#000145" stroke-miterlimit="10" stroke-linecap="round" stroke-linejoin="round"/>
<path d="M51.5067 26.0188H46.448V32.8113H51.5067V26.0188Z" fill="white"/>
<path d="M46.9077 70.4578C46.9077 72.6452 49.3221 74.257 51.6215 72.8754C51.8514 72.7603 52.1963 72.4149 52.3113 72.1847C53.346 70.3426 52.6562 68.6157 51.1616 67.8098V63.8955H48.5173V67.8098C47.5975 68.2703 46.9077 69.3065 46.9077 70.4578Z" stroke="#000145" stroke-miterlimit="10"/>
<path d="M66.4796 68.1333C67.032 67.3564 66.8508 66.2782 66.075 65.725C65.2991 65.1718 64.2223 65.3532 63.6699 66.1301C63.1175 66.907 63.2986 67.9853 64.0745 68.5385C64.8504 69.0916 65.9271 68.9103 66.4796 68.1333Z" fill="white" stroke="#000145" stroke-miterlimit="10" stroke-linecap="round" stroke-linejoin="round"/>
<path d="M72.8804 68.1526C73.4329 67.3757 73.2517 66.2975 72.4759 65.7443C71.7 65.1911 70.6232 65.3725 70.0708 66.1494C69.5184 66.9263 69.6995 68.0046 70.4754 68.5578C71.2512 69.1109 72.328 68.9295 72.8804 68.1526Z" fill="white" stroke="#000145" stroke-miterlimit="10" stroke-linecap="round" stroke-linejoin="round"/>
<path d="M79.3358 68.0948C79.8882 67.3178 79.707 66.2396 78.9312 65.6864C78.1553 65.1332 77.0785 65.3146 76.5261 66.0916C75.9737 66.8685 76.1548 67.9467 76.9307 68.4999C77.7066 69.0531 78.7833 68.8717 79.3358 68.0948Z" fill="white" stroke="#000145" stroke-miterlimit="10" stroke-linecap="round" stroke-linejoin="round"/>
</svg>
