<?xml version="1.0" encoding="utf-8"?>
<!-- Generator: Adobe Illustrator 20.0.0, SVG Export Plug-In . SVG Version: 6.00 Build 0)  -->
<svg version="1.1" id="Слой_1" xmlns="http://www.w3.org/2000/svg" xmlns:xlink="http://www.w3.org/1999/xlink" x="0px" y="0px"
	 viewBox="0 0 100 100" style="enable-background:new 0 0 100 100;" xml:space="preserve">
<style type="text/css">
	.st0{fill:#FFFFFF;stroke:#1E3958;stroke-miterlimit:10;}
	.st1{fill:#FFFFFF;}
</style>
<circle class="st0" cx="50.1" cy="31.8" r="11.8"/>
<path class="st0" d="M65.6,42.2L50.7,28.9c-0.3-0.3-0.8-0.3-1.2,0L34.6,42.2c-0.2,0.2-0.3,0.5-0.3,0.8v33.5c0,0.6,0.4,1,0.9,1h29.9
	c0.5,0,0.9-0.5,0.9-1V43C66,42.7,65.9,42.4,65.6,42.2z M50.5,49.6c-3,0-5.4-2.4-5.4-5.4s2.4-5.4,5.4-5.4c3,0,5.4,2.4,5.4,5.4
	S53.4,49.6,50.5,49.6z"/>
<path class="st0" d="M60.3,37.6c-0.4,0.7-1.1,1.7-2.1,2.7c-1.2,1.1-2.5,1.8-3.3,2.1"/>
<rect x="63.2" y="55" class="st1" width="6.5" height="10.3"/>
<rect x="41.9" y="69.7" class="st1" width="6.5" height="10.3"/>
<polygon class="st0" points="71.8,57.1 65.9,62.8 60.2,57 "/>
<polygon class="st0" points="47.4,79.5 32.2,79.5 32.2,64.3 "/>
</svg>
