<?xml version="1.0" encoding="utf-8"?>
<!-- Generator: Adobe Illustrator 20.0.0, SVG Export Plug-In . SVG Version: 6.00 Build 0)  -->
<svg version="1.1" id="Слой_1" xmlns="http://www.w3.org/2000/svg" xmlns:xlink="http://www.w3.org/1999/xlink" x="0px" y="0px"
	 viewBox="0 0 100 100" style="enable-background:new 0 0 100 100;" xml:space="preserve">
<style type="text/css">
	.st0{fill:none;stroke:#1E3958;stroke-linecap:round;stroke-linejoin:round;stroke-miterlimit:10;}
	.st1{fill:none;stroke:#1E3958;stroke-miterlimit:10;}
	.st2{fill:#FFFFFF;stroke:#1E3958;stroke-linecap:round;stroke-linejoin:round;stroke-miterlimit:10;}
	.st3{fill:#FFFFFF;}
	.st4{fill:#FFFFFF;stroke:#1E3958;stroke-miterlimit:10;}
</style>
<polyline class="st0" points="52.9,36.9 52.9,52.7 63.2,52.7 "/>
<circle class="st1" cx="53.8" cy="50.2" r="22.9"/>
<path class="st2" d="M44.7,71.8c-11.2-7.7-15.1-22.8-9-35c3.7-7.4,10.2-12.4,17.5-14.4c-10.9-1-21.9,4.6-27.2,15.3
	c-6.3,12.7-1.8,28.4,10.3,35.8c6.8,4.1,14.6,5,21.7,3.1C53.4,76.2,48.8,74.6,44.7,71.8z"/>
<rect x="72.6" y="40.8" class="st3" width="6.5" height="11.9"/>
<rect x="60" y="63.7" class="st3" width="6.5" height="13.3"/>
<rect x="69.5" y="60" class="st3" width="6.5" height="13.3"/>
<polygon class="st4" points="75.8,42.1 77.5,45.4 81.1,45.9 78.5,48.5 79.1,52.1 75.8,50.4 72.6,52.1 73.2,48.5 70.5,45.9 
	74.2,45.4 "/>
<polygon class="st4" points="68.3,54.7 71.8,61.8 79.6,62.9 74,68.4 75.3,76.2 68.3,72.5 61.4,76.2 62.7,68.4 57.1,62.9 64.9,61.8 
	"/>
</svg>
