<?xml version="1.0" encoding="utf-8"?>
<!-- Generator: Adobe Illustrator 20.0.0, SVG Export Plug-In . SVG Version: 6.00 Build 0)  -->
<svg version="1.1" id="Слой_1" xmlns="http://www.w3.org/2000/svg" xmlns:xlink="http://www.w3.org/1999/xlink" x="0px" y="0px"
	 viewBox="0 0 100 100" style="enable-background:new 0 0 100 100;" xml:space="preserve">
<style type="text/css">
	.st0{fill:#FFFFFF;stroke:#1E3958;stroke-miterlimit:10;}
	.st1{fill:none;stroke:#1E3958;stroke-miterlimit:10;}
	.st2{fill:#FFFFFF;}
</style>
<circle class="st0" cx="52.2" cy="50.3" r="26.6"/>
<path class="st1" d="M70.3,50.3c0,14.7-18.1,26.6-18.1,26.6S34,65,34,50.3s8.1-26.6,18.1-26.6S70.3,35.6,70.3,50.3z"/>
<line class="st1" x1="29" y1="37.3" x2="75.4" y2="37.3"/>
<line class="st1" x1="29" y1="63.3" x2="75.4" y2="63.3"/>
<rect x="58.8" y="31.3" transform="matrix(0.8877 -0.4603 0.4603 0.8877 -10.1868 32.7663)" class="st2" width="6.5" height="11.9"/>
<rect x="32.4" y="56.8" transform="matrix(0.8877 -0.4603 0.4603 0.8877 -24.1997 22.8029)" class="st2" width="4.6" height="8.4"/>
<path class="st0" d="M42.8,53.9c0-3.2-2.6-5.9-5.9-5.9S31,50.7,31,53.9c0,1,0.3,2,0.7,2.8l0,0L36.9,67l5.2-10.3l0,0
	C42.5,55.9,42.8,54.9,42.8,53.9z"/>
<path class="st0" d="M73.9,27.7c0-4.6-3.6-8.3-8.1-8.6c-4.8-0.3-9,3.8-9.1,8.5c0,1.5,0.4,2.9,1,4.1l0,0l7.5,15l7.5-15l0,0
	C73.5,30.6,73.9,29.2,73.9,27.7z"/>
</svg>
